<svg xmlns="http://www.w3.org/2000/svg" width="16" height="16">
    <path fill="#241f31" d="M4 2C2.355 2 1 3.355 1 5v7c0 1.645 1.355 3 3 3h3c1.645 0 3-1.355 3-3V5c0-1.645-1.355-3-3-3zm5.969.332A3.999 3.999 0 0 1 11 5v7a3.983 3.983 0 0 1-1.18 2.824 3.004 3.004 0 0 0 1.504-2.094l1.215-6.898a3.013 3.013 0 0 0-2.434-3.473zm2.648.387a3.996 3.996 0 0 1 .906 3.289l-1.214 6.894a3.943 3.943 0 0 1-.844 1.828 2.98 2.98 0 0 0 1.066-1.402l2.395-6.578a3.012 3.012 0 0 0-1.793-3.844zM7 4v1L6 8h2v1l-4 4v-1l1-3H3V8zm0 0"/>
</svg>
