<?xml version="1.0" encoding="UTF-8"?>
<svg height="128px" viewBox="0 0 128 128" width="128px" xmlns="http://www.w3.org/2000/svg" xmlns:xlink="http://www.w3.org/1999/xlink">
    <linearGradient id="a" gradientTransform="matrix(0.939693 0.34202 -0.34202 0.939693 0 -172)" gradientUnits="userSpaceOnUse" x1="187.344208" x2="167.500137" y1="234.038773" y2="156.127197">
        <stop offset="0" stop-color="#ff6fac"/>
        <stop offset="1" stop-color="#736bf9"/>
    </linearGradient>
    <linearGradient id="b" gradientTransform="matrix(0.984808 0.173648 -0.173648 0.984808 0 -172)" gradientUnits="userSpaceOnUse" x1="103.542397" x2="125.331947" y1="241.691895" y2="180.985916">
        <stop offset="0" stop-color="#4342b4"/>
        <stop offset="1" stop-color="#aee8eb"/>
    </linearGradient>
    <linearGradient id="c" gradientUnits="userSpaceOnUse" x1="38" x2="56" y1="85.999723" y2="43.999723">
        <stop offset="0" stop-color="#736bf9"/>
        <stop offset="1" stop-color="#ff6fac"/>
    </linearGradient>
    <path d="m 63.472656 5.558594 l 52.625 19.152344 c 4.152344 1.511718 6.292969 6.101562 4.78125 10.253906 l -30.097656 82.695312 c -1.511719 4.152344 -6.101562 6.292969 -10.253906 4.78125 l -52.625 -19.152344 c -4.152344 -1.511718 -6.292969 -6.101562 -4.78125 -10.253906 l 30.097656 -82.695312 c 1.511719 -4.152344 6.101562 -6.292969 10.253906 -4.78125 z m 0 0" fill="url(#a)"/>
    <path d="m 61.113281 5.082031 c -3.410156 -0.167969 -6.660156 1.875 -7.894531 5.257813 l -0.675781 1.863281 c 1.523437 -4.152344 6.085937 -6.277344 10.246093 -4.761719 l 52.621094 19.148438 c 4.164063 1.515625 6.296875 6.089844 4.785156 10.253906 l 0.679688 -1.878906 c 1.519531 -4.164063 -0.613281 -8.734375 -4.777344 -10.253906 l -52.621094 -19.152344 c -0.78125 -0.285156 -1.578124 -0.441406 -2.363281 -0.476563 z m 0 0" fill="#ffffff" fill-opacity="0.2"/>
    <path d="m 41.457031 7.929688 l 55.148438 9.722656 c 4.351562 0.765625 7.253906 4.917968 6.488281 9.265625 l -15.28125 86.664062 c -0.765625 4.351563 -4.917969 7.257813 -9.269531 6.488281 l -55.148438 -9.722656 c -4.351562 -0.765625 -7.253906 -4.917968 -6.488281 -9.265625 l 15.28125 -86.664062 c 0.765625 -4.351563 4.917969 -7.257813 9.269531 -6.488281 z m 0 0" fill="url(#b)"/>
    <path d="m 39.835938 7.808594 c -3.726563 0.097656 -6.976563 2.789062 -7.648438 6.609375 l -0.34375 1.957031 c 0.773438 -4.355469 4.902344 -7.246094 9.265625 -6.476562 l 55.148437 9.722656 c 4.363282 0.769531 7.257813 4.902344 6.488282 9.269531 l 0.347656 -1.96875 c 0.769531 -4.367187 -2.125 -8.5 -6.488281 -9.269531 l -55.148438 -9.722656 c -0.546875 -0.097657 -1.089843 -0.136719 -1.621093 -0.121094 z m 0 0" fill="#ffffff" fill-opacity="0.2"/>
    <path d="m 20 12 h 56 c 4.417969 0 8 3.582031 8 8 v 88 c 0 4.417969 -3.582031 8 -8 8 h -56 c -4.417969 0 -8 -3.582031 -8 -8 v -88 c 0 -4.417969 3.582031 -8 8 -8 z m 0 0" fill="#ffffff"/>
    <path d="m 48 68 l -4.636719 19.46875 c -0.203125 0.867188 0.285157 1.746094 1.132813 2.027344 l 0.007812 0.003906 c 0.875 0.292969 1.832032 -0.0625 2.308594 -0.851562 l 15.128906 -25.21875 c 0.421875 -0.699219 0.429688 -1.570313 0.03125 -2.28125 c -0.402344 -0.710938 -1.15625 -1.148438 -1.972656 -1.148438 h -12 l 4.636719 -19.464844 c 0.203125 -0.871094 -0.285157 -1.75 -1.132813 -2.035156 h -0.007812 c -0.875 -0.292969 -1.832032 0.0625 -2.308594 0.851562 l -15.128906 25.21875 c -0.421875 0.699219 -0.429688 1.570313 -0.03125 2.28125 c 0.402344 0.710938 1.15625 1.148438 1.972656 1.148438 z m 0 0" fill="url(#c)"/>
    <path d="m 50.621094 38.414062 c -0.59375 0.078126 -1.121094 0.421876 -1.433594 0.9375 l -15.128906 25.21875 c -0.375 0.660157 -0.394532 1.464844 -0.046875 2.140626 c 0.011719 -0.046876 0.027343 -0.09375 0.046875 -0.140626 l 15.128906 -25.21875 c 0.476562 -0.789062 1.433594 -1.144531 2.308594 -0.851562 h 0.007812 c 0.402344 0.136719 0.742188 0.414062 0.953125 0.78125 l 0.179688 -0.75 c 0.203125 -0.867188 -0.285157 -1.746094 -1.132813 -2.03125 h -0.007812 c -0.28125 -0.09375 -0.582032 -0.125 -0.875 -0.085938 z m -2.144532 21.585938 l -0.476562 2 h 12 c 0.859375 0.003906 1.640625 0.492188 2.019531 1.261719 c 0.34375 -0.699219 0.300781 -1.527344 -0.109375 -2.1875 c -0.410156 -0.664063 -1.132812 -1.070313 -1.910156 -1.074219 z m -0.953124 10 l -4.160157 17.46875 c -0.074219 0.402344 -0.003906 0.816406 0.199219 1.175781 l 4.4375 -18.644531 z m 0 0" fill-opacity="0.2"/>
</svg>
